<?xml version="1.0" encoding="utf-8"?>
<!-- Generator: Adobe Illustrator 16.0.0, SVG Export Plug-In . SVG Version: 6.00 Build 0)  -->
<!DOCTYPE svg PUBLIC "-//W3C//DTD SVG 1.1//EN" "http://www.w3.org/Graphics/SVG/1.1/DTD/svg11.dtd">
<svg version="1.1" id="Слой_1" xmlns="http://www.w3.org/2000/svg" xmlns:xlink="http://www.w3.org/1999/xlink" x="0px" y="0px"
	 width="227.826px" height="78.837px" viewBox="0 0 227.826 78.837" enable-background="new 0 0 227.826 78.837"
	 xml:space="preserve">
<path fill="#FA472F" d="M213.928,29.983c1.473-0.544,2.25-1.013,2.25-2.097c0-3.105-3.491-6.68-7.688-6.68
	c-3.109,0-8.935,2.406-8.935,10.797c0,1.321,0.159,2.721,0.234,4.116L213.928,29.983z M224.95,49.62l-3.722,3.511
	c-0.854,0.465-1.71,1.009-2.564,1.396c-2.563,1.165-5.206,1.476-7.536,1.476c-2.485,0-6.369-0.149-10.327-3.03
	c-5.515-3.88-7.926-10.56-7.926-16.382c0-12.038,9.791-17.944,17.789-17.944c2.794,0,5.672,0.701,8,2.173
	c3.884,2.561,4.894,5.904,5.437,7.688l-18.248,7.381l-5.987,0.465c1.941,9.861,8.624,15.61,16.003,15.61
	c3.685,0,6.431-1.211,8.927-2.439C224.795,49.524,225.308,49.259,224.95,49.62"/>
<path fill="#009D53" d="M186.761,49.017c0,3.023,0.543,3.492,3.105,3.722c1.319,0.158,2.641,0.232,3.961,0.392l-2.874,1.709h-13.692
	c1.786-2.332,2.104-2.567,2.104-4.119v-1.726l-0.024-46.194h-6.056L179.108,0h11.107c-2.403,1.399-3.13,2.247-3.44,4.964
	L186.761,49.017z"/>
<path fill="#0065EA" d="M162.273,42.181c1.793-1.791,1.947-4.274,1.947-5.674c0-5.591-3.344-14.294-9.792-14.294
	c-2.021,0-4.193,1.012-5.433,2.568c-1.323,1.632-1.711,3.726-1.711,5.746c0,5.201,3.03,13.829,9.707,13.829
	C158.935,44.355,161.029,43.419,162.273,42.181 M160.027,56.937c-0.626-0.075-1.015-0.075-1.793-0.075
	c-0.695,0-4.892,0.149-8.155,1.238c-1.705,0.621-6.68,2.489-6.68,7.999c0,5.515,5.36,9.476,13.673,9.476
	c7.459,0,11.417-3.571,11.417-8.379C168.49,63.226,165.928,61.13,160.027,56.937 M165.535,22.447
	c1.788,1.479,5.52,4.582,5.52,10.489c0,5.752-3.267,8.465-6.522,11.026c-1.014,1.011-2.182,2.098-2.182,3.807
	c0,1.711,1.168,2.64,2.022,3.342l2.8,2.174c3.412,2.873,6.521,5.517,6.521,10.877c0,7.302-7.071,14.675-20.429,14.675
	c-11.263,0-16.704-5.358-16.704-11.103c0-2.799,1.404-6.757,5.987-9.478c4.809-2.954,11.338-3.339,14.837-3.571
	c-1.092-1.401-2.333-2.879-2.333-5.281c0-1.323,0.39-2.103,0.778-3.032c-0.858,0.08-1.711,0.154-2.489,0.154
	c-8.229,0-12.893-6.137-12.893-12.193c0-3.569,1.633-7.537,4.974-10.408c4.424-3.652,9.704-4.274,13.9-4.274h15.999l-4.969,2.794
	H165.535z"/>
<path fill="#FFBC00" d="M127.09,49.555c1.865-2.479,2.328-5.593,2.328-8.625c0-6.832-3.264-19.878-12.891-19.878
	c-2.565,0-5.131,1.008-6.991,2.642c-3.029,2.719-3.571,6.138-3.571,9.478c0,7.685,3.8,20.342,13.198,20.342
	C122.198,53.513,125.303,52.041,127.09,49.555 M117.384,55.853c-12.355,0-18.948-9.638-18.948-18.337
	c0-10.17,8.306-18.87,20.108-18.87c11.42,0,18.566,8.931,18.566,18.327C137.11,46.14,130.04,55.853,117.384,55.853"/>
<path fill="#FA472F" d="M85.77,49.555c1.862-2.479,2.327-5.593,2.327-8.625c0-6.832-3.259-19.878-12.888-19.878
	c-2.566,0-5.13,1.008-6.995,2.642c-3.028,2.719-3.571,6.138-3.571,9.478c0,7.685,3.809,20.342,13.205,20.342
	C80.873,53.513,83.989,52.041,85.77,49.555 M76.062,55.853c-12.355,0-18.953-9.638-18.953-18.337c0-10.17,8.309-18.87,20.117-18.87
	c11.416,0,18.567,8.931,18.567,18.327C95.792,46.14,88.722,55.853,76.062,55.853"/>
<path fill="#0065EA" d="M52.171,53.139l-10.412,2.403c-4.223,0.655-8.013,1.238-12.015,1.238C9.645,56.78,2,41.996,2,30.422
	C2,16.292,12.852,3.186,31.419,3.186c3.932,0,7.718,0.581,11.143,1.529c5.461,1.531,8.007,3.424,9.609,4.511l-6.043,5.758
	l-2.549,0.579l1.813-2.913c-2.465-2.398-6.992-6.844-15.579-6.844c-11.502,0-20.169,8.741-20.169,21.483
	c0,13.688,9.907,26.576,25.778,26.576c4.663,0,7.063-0.942,9.251-1.821V40.326l-10.995,0.579l5.818-3.133h15.442l-1.892,1.824
	c-0.513,0.436-0.588,0.586-0.732,1.16c-0.075,0.66-0.145,2.769-0.145,3.497V53.139z"/>
</svg>
